<mxfile host="app.diagrams.net" modified="2023-05-23T23:31:17.498Z" agent="Mozilla/5.0 (Windows NT 10.0; Win64; x64) AppleWebKit/537.36 (KHTML, like Gecko) Chrome/113.0.0.0 Safari/537.36" etag="kZDYG1rAhHQjfeQHiNia" version="21.3.3" type="device">
  <diagram name="Página-1" id="hb4rdn7i-hjTacB7gggp">
    <mxGraphModel dx="880" dy="484" grid="1" gridSize="10" guides="1" tooltips="1" connect="1" arrows="1" fold="1" page="1" pageScale="1" pageWidth="827" pageHeight="1169" math="0" shadow="0">
      <root>
        <mxCell id="0" />
        <mxCell id="1" parent="0" />
        <mxCell id="kfut5QRVRQp25fKVEmAp-2" value="" style="edgeStyle=orthogonalEdgeStyle;rounded=0;orthogonalLoop=1;jettySize=auto;html=1;" edge="1" parent="1" source="hO523OgnEmGymE_1D8R6-1" target="hO523OgnEmGymE_1D8R6-3">
          <mxGeometry relative="1" as="geometry" />
        </mxCell>
        <mxCell id="hO523OgnEmGymE_1D8R6-1" value="" style="ellipse;html=1;shape=startState;fillColor=#000000;strokeColor=#ff0000;" parent="1" vertex="1">
          <mxGeometry x="120" y="160" width="30" height="30" as="geometry" />
        </mxCell>
        <mxCell id="hO523OgnEmGymE_1D8R6-3" value="&lt;b&gt;Definir a URL da API&lt;/b&gt;" style="rounded=1;whiteSpace=wrap;html=1;arcSize=40;fontColor=#000000;fillColor=#FFFFF5;strokeColor=#000000;" parent="1" vertex="1">
          <mxGeometry x="210" y="155" width="120" height="40" as="geometry" />
        </mxCell>
        <mxCell id="hO523OgnEmGymE_1D8R6-5" value="&lt;b&gt;Definir o cabeçalho de autenticação&lt;/b&gt;" style="rounded=1;whiteSpace=wrap;html=1;arcSize=40;fontColor=#000000;fillColor=#FFFFFF;strokeColor=#050000;" parent="1" vertex="1">
          <mxGeometry x="370" y="155" width="130" height="40" as="geometry" />
        </mxCell>
        <mxCell id="hO523OgnEmGymE_1D8R6-6" value="&lt;b&gt;Definir os parâmetros da solicitação&lt;/b&gt;" style="rounded=1;whiteSpace=wrap;html=1;arcSize=40;fontColor=#000000;fillColor=#FFFFFF;strokeColor=#050000;" parent="1" vertex="1">
          <mxGeometry x="530" y="155" width="130" height="40" as="geometry" />
        </mxCell>
        <mxCell id="hO523OgnEmGymE_1D8R6-7" value="&lt;b&gt;Realizar a chamada para a API&lt;/b&gt;" style="rounded=1;whiteSpace=wrap;html=1;arcSize=40;fontColor=#000000;fillColor=#FFFFFF;strokeColor=#000000;" parent="1" vertex="1">
          <mxGeometry x="660" y="210" width="120" height="40" as="geometry" />
        </mxCell>
        <mxCell id="hO523OgnEmGymE_1D8R6-8" value="&lt;b&gt;Receber a resposta do modelo&lt;/b&gt;" style="rounded=1;whiteSpace=wrap;html=1;arcSize=40;fontColor=#000000;fillColor=#FFFFFF;strokeColor=#050000;" parent="1" vertex="1">
          <mxGeometry x="530" y="250" width="120" height="40" as="geometry" />
        </mxCell>
        <mxCell id="hO523OgnEmGymE_1D8R6-9" value="&lt;b&gt;Exibir a resposta&lt;/b&gt;" style="rounded=1;whiteSpace=wrap;html=1;arcSize=40;fontColor=#000000;fillColor=#FFFFFF;strokeColor=#000000;" parent="1" vertex="1">
          <mxGeometry x="210" y="250" width="120" height="40" as="geometry" />
        </mxCell>
        <mxCell id="hO523OgnEmGymE_1D8R6-10" value="&lt;b&gt;Processar a resposta do modelo&lt;/b&gt;" style="rounded=1;whiteSpace=wrap;html=1;arcSize=40;fontColor=#000000;fillColor=#FFFFFF;strokeColor=#050000;" parent="1" vertex="1">
          <mxGeometry x="370" y="250" width="120" height="40" as="geometry" />
        </mxCell>
        <mxCell id="hO523OgnEmGymE_1D8R6-12" value="" style="ellipse;html=1;shape=endState;fillColor=#000000;strokeColor=#ff0000;" parent="1" vertex="1">
          <mxGeometry x="120" y="255" width="30" height="30" as="geometry" />
        </mxCell>
        <mxCell id="hO523OgnEmGymE_1D8R6-13" value="" style="edgeStyle=orthogonalEdgeStyle;html=1;verticalAlign=bottom;endArrow=open;endSize=8;strokeColor=#000000;rounded=0;exitX=0;exitY=0.5;exitDx=0;exitDy=0;entryX=1;entryY=0.5;entryDx=0;entryDy=0;" parent="1" source="hO523OgnEmGymE_1D8R6-9" target="hO523OgnEmGymE_1D8R6-12" edge="1">
          <mxGeometry relative="1" as="geometry">
            <mxPoint x="220" y="185" as="targetPoint" />
            <mxPoint x="200" y="290" as="sourcePoint" />
            <Array as="points">
              <mxPoint x="190" y="270" />
              <mxPoint x="190" y="270" />
            </Array>
          </mxGeometry>
        </mxCell>
        <mxCell id="hO523OgnEmGymE_1D8R6-14" value="" style="edgeStyle=orthogonalEdgeStyle;html=1;verticalAlign=bottom;endArrow=open;endSize=8;strokeColor=#000000;rounded=0;entryX=0;entryY=0.5;entryDx=0;entryDy=0;exitX=1;exitY=0.5;exitDx=0;exitDy=0;" parent="1" source="hO523OgnEmGymE_1D8R6-3" target="hO523OgnEmGymE_1D8R6-5" edge="1">
          <mxGeometry relative="1" as="geometry">
            <mxPoint x="220" y="185" as="targetPoint" />
            <mxPoint x="160" y="185" as="sourcePoint" />
          </mxGeometry>
        </mxCell>
        <mxCell id="hO523OgnEmGymE_1D8R6-15" value="" style="edgeStyle=orthogonalEdgeStyle;html=1;verticalAlign=bottom;endArrow=open;endSize=8;strokeColor=#050000;rounded=0;entryX=0;entryY=0.5;entryDx=0;entryDy=0;exitX=1;exitY=0.5;exitDx=0;exitDy=0;fillColor=#FFFFFF;" parent="1" source="hO523OgnEmGymE_1D8R6-5" target="hO523OgnEmGymE_1D8R6-6" edge="1">
          <mxGeometry relative="1" as="geometry">
            <mxPoint x="230" y="195" as="targetPoint" />
            <mxPoint x="170" y="195" as="sourcePoint" />
          </mxGeometry>
        </mxCell>
        <mxCell id="hO523OgnEmGymE_1D8R6-16" value="" style="edgeStyle=orthogonalEdgeStyle;html=1;verticalAlign=bottom;endArrow=open;endSize=8;strokeColor=#050000;rounded=0;entryX=0.5;entryY=0;entryDx=0;entryDy=0;exitX=1;exitY=0.5;exitDx=0;exitDy=0;fillColor=#FFFFFF;" parent="1" source="hO523OgnEmGymE_1D8R6-6" target="hO523OgnEmGymE_1D8R6-7" edge="1">
          <mxGeometry relative="1" as="geometry">
            <mxPoint x="240" y="205" as="targetPoint" />
            <mxPoint x="180" y="205" as="sourcePoint" />
          </mxGeometry>
        </mxCell>
        <mxCell id="hO523OgnEmGymE_1D8R6-17" value="" style="edgeStyle=orthogonalEdgeStyle;html=1;verticalAlign=bottom;endArrow=open;endSize=8;strokeColor=#050000;rounded=0;entryX=1;entryY=0.5;entryDx=0;entryDy=0;exitX=0.5;exitY=1;exitDx=0;exitDy=0;fillColor=#FFFFFF;" parent="1" source="hO523OgnEmGymE_1D8R6-7" target="hO523OgnEmGymE_1D8R6-8" edge="1">
          <mxGeometry relative="1" as="geometry">
            <mxPoint x="250" y="215" as="targetPoint" />
            <mxPoint x="190" y="215" as="sourcePoint" />
          </mxGeometry>
        </mxCell>
        <mxCell id="hO523OgnEmGymE_1D8R6-18" value="" style="edgeStyle=orthogonalEdgeStyle;html=1;verticalAlign=bottom;endArrow=open;endSize=8;strokeColor=#050000;rounded=0;entryX=1;entryY=0.5;entryDx=0;entryDy=0;exitX=0;exitY=0.5;exitDx=0;exitDy=0;fillColor=#FFFFFF;" parent="1" source="hO523OgnEmGymE_1D8R6-8" target="hO523OgnEmGymE_1D8R6-10" edge="1">
          <mxGeometry relative="1" as="geometry">
            <mxPoint x="260" y="225" as="targetPoint" />
            <mxPoint x="200" y="225" as="sourcePoint" />
          </mxGeometry>
        </mxCell>
        <mxCell id="hO523OgnEmGymE_1D8R6-19" value="" style="edgeStyle=orthogonalEdgeStyle;html=1;verticalAlign=bottom;endArrow=open;endSize=8;strokeColor=#000000;rounded=0;entryX=1;entryY=0.5;entryDx=0;entryDy=0;exitX=0;exitY=0.5;exitDx=0;exitDy=0;" parent="1" source="hO523OgnEmGymE_1D8R6-10" target="hO523OgnEmGymE_1D8R6-9" edge="1">
          <mxGeometry relative="1" as="geometry">
            <mxPoint x="270" y="235" as="targetPoint" />
            <mxPoint x="210" y="235" as="sourcePoint" />
          </mxGeometry>
        </mxCell>
      </root>
    </mxGraphModel>
  </diagram>
</mxfile>
